HIERARCHY
ROOT RootJoint
{
    OFFSET   0.000000   0.000000   0.000000
    CHANNELS 6 Xposition Yposition Zposition Xrotation Yrotation Zrotation
    JOINT pelvis_lowerback
    {
        OFFSET   0.000000   0.093605   0.000000
        CHANNELS 3 Xrotation Yrotation Zrotation
        JOINT lowerback_torso
        {
            OFFSET   0.000000   0.100000   0.000000
            CHANNELS 3 Xrotation Yrotation Zrotation
            JOINT torso_head
            {
                OFFSET   0.000000   0.282350   0.000000
                CHANNELS 3 Xrotation Yrotation Zrotation
                End Site
                {
                    OFFSET   0.000000   0.192650   0.000000
                }
            }
            JOINT rTorso_Clavicle
            {
                OFFSET  -0.001000   0.157500   0.000000
                CHANNELS 3 Xrotation Yrotation Zrotation
                JOINT rShoulder
                {
                    OFFSET  -0.117647   0.000000   0.000000
                    CHANNELS 3 Xrotation Yrotation Zrotation
                    JOINT rElbow
                    {
                        OFFSET  -0.245000   0.000000   0.000000
                        CHANNELS 3 Xrotation Yrotation Zrotation
                        JOINT rWrist
                        {
                            OFFSET  -0.240000   0.000000   0.000000
                            CHANNELS 3 Xrotation Yrotation Zrotation
                            End Site
                            {
                                OFFSET  -0.116353  -0.002500   0.000000
                            }
                        }
                    }
                }
            }
            JOINT lTorso_Clavicle
            {
                OFFSET   0.001000   0.157500   0.000000
                CHANNELS 3 Xrotation Yrotation Zrotation
                JOINT lShoulder
                {
                    OFFSET   0.117647   0.000000   0.000000
                    CHANNELS 3 Xrotation Yrotation Zrotation
                    JOINT lElbow
                    {
                        OFFSET   0.245000   0.000000   0.000000
                        CHANNELS 3 Xrotation Yrotation Zrotation
                        JOINT lWrist
                        {
                            OFFSET   0.240000   0.000000   0.000000
                            CHANNELS 3 Xrotation Yrotation Zrotation
                            End Site
                            {
                                OFFSET   0.116353  -0.002500   0.000000
                            }
                        }
                    }
                }
            }
        }
    }
    JOINT rHip
    {
        OFFSET  -0.100000  -0.051395   0.000000
        CHANNELS 3 Xrotation Yrotation Zrotation
        JOINT rKnee
        {
            OFFSET   0.000000  -0.410000   0.000000
            CHANNELS 3 Xrotation Yrotation Zrotation
            JOINT rAnkle
            {
                OFFSET   0.000000  -0.390000   0.000000
                CHANNELS 3 Xrotation Yrotation Zrotation
                JOINT rToeJoint
                {
                    OFFSET   0.000000  -0.050000   0.130000
                    CHANNELS 3 Xrotation Yrotation Zrotation
                    End Site
                    {
                        OFFSET  -0.010000   0.002000   0.060000
                    }
                }
            }
        }
    }
    JOINT lHip
    {
        OFFSET   0.100000  -0.051395   0.000000
        CHANNELS 3 Xrotation Yrotation Zrotation
        JOINT lKnee
        {
            OFFSET   0.000000  -0.410000   0.000000
            CHANNELS 3 Xrotation Yrotation Zrotation
            JOINT lAnkle
            {
                OFFSET   0.000000  -0.390000   0.000000
                CHANNELS 3 Xrotation Yrotation Zrotation
                JOINT lToeJoint
                {
                    OFFSET   0.000000  -0.050000   0.130000
                    CHANNELS 3 Xrotation Yrotation Zrotation
                    End Site
                    {
                        OFFSET   0.010000   0.002000   0.060000
                    }
                }
            }
        }
    }
}
MOTION
Frames: 14
Frame Time:   0.008333
 -2.594754   0.908312   5.357983  -9.228042  -9.062237  -2.456921  11.729260   1.902904  -2.582167   2.697852   3.689086   0.243508   0.184096  -1.781112   1.860861   2.210379  11.039718   3.533954   1.319301  24.103103  51.323585  -0.008327  60.191180   0.004599   0.792628   2.398895  -7.185254   2.540878  -1.038670  -2.572366   3.520991  -7.432324 -50.849406  -0.013510 -84.200468  -0.009341  -3.229620  -3.936405  12.678251 -14.650298  -7.106463  -6.578284  62.622280   0.004906  -0.013837  -4.611452  -4.489963   6.316847  -2.992073   0.001085  -0.009473  -1.111823  -3.910603  -1.500537  22.394861   0.000602   0.001465 -12.726074   5.499724   6.999101   0.373699  -0.000030  -0.000002
 -2.594975   0.908040   5.359570  -9.364873  -8.744569  -2.448599  11.940880   1.781887  -2.550942   2.771572   3.609641   0.273328   0.079365  -1.781959   1.843512   2.194373  10.911406   3.726739   1.448078  23.597633  51.152602  -0.004949  59.750088   0.001090   0.785610   2.347809  -6.927272   2.425903  -1.258965  -2.786499   3.437542  -7.692039 -50.899425  -0.024257 -83.493301  -0.019610  -3.206755  -4.019396  12.624913 -15.346159  -7.163424  -6.998257  63.256128   0.004963  -0.011799  -4.568740  -4.868410   6.250108  -2.846047   0.001222  -0.008148  -0.968252  -3.955994  -1.493100  22.591597   0.000593   0.001619 -12.907307   5.231336   6.967339   0.366965  -0.000026  -0.000002
 -2.595184   0.907757   5.361064  -9.491467  -8.434949  -2.428658  12.162112   1.652569  -2.521674   2.846181   3.510971   0.298753  -0.021139  -1.779834   1.832701   2.165622  10.773289   3.889074   1.561471  23.105754  50.970998  -0.002168  59.335799  -0.001642   0.773735   2.299319  -6.782105   2.319414  -1.485358  -3.001972   3.361560  -7.941395 -50.951787  -0.032605 -82.810483  -0.027649  -3.209797  -3.978319  12.530668 -16.044704  -7.178467  -7.427309  63.732777   0.004853  -0.009949  -4.536085  -5.222881   6.186121  -2.728538   0.001262  -0.006924  -0.839997  -3.999274  -1.494161  22.782990   0.000580   0.001722 -13.078397   4.968485   6.931455   0.359304  -0.000023  -0.000001
 -2.595435   0.907469   5.362515  -9.621169  -8.141419  -2.406022  12.388590   1.517629  -2.495289   2.928746   3.404005   0.317876  -0.112530  -1.777763   1.824884   2.134386  10.636144   4.027741   1.665326  22.638431  50.790917  -0.000061  58.947617  -0.003595   0.761141   2.245610  -6.690366   2.220684  -1.703501  -3.210012   3.291470  -8.177655 -51.004807  -0.037905 -82.169732  -0.032810  -3.220964  -3.901019  12.414802 -16.738063  -7.169802  -7.852612  64.132508   0.004624  -0.008378  -4.508024  -5.554186   6.125920  -2.623913   0.001246  -0.005871  -0.708279  -4.040603  -1.495286  22.970850   0.000558   0.001775 -13.247680   4.719253   6.894511   0.352058  -0.000021  -0.000001
 -2.595760   0.907183   5.363952  -9.755863  -7.864108  -2.385279  12.614450   1.380778  -2.472055   3.017900   3.293751   0.332191  -0.195350  -1.776029   1.818485   2.105390  10.502074   4.150398   1.762587  22.196926  50.618120   0.001461  58.583955  -0.004909   0.748215   2.186700  -6.623131   2.128968  -1.910376  -3.408161   3.226615  -8.400233 -51.056923  -0.040609 -81.570823  -0.035505  -3.233801  -3.816139  12.288113 -17.418203  -7.146924  -8.263962  64.482945   0.004324  -0.007058  -4.483262  -5.863652   6.069612  -2.530109   0.001191  -0.004973  -0.567931  -4.080925  -1.490463  23.154671   0.000526   0.001789 -13.418034   4.484351   6.857255   0.345832  -0.000018  -0.000001
 -2.596171   0.906904   5.365390  -9.894218  -7.601683  -2.367512  12.835198   1.244658  -2.452329   3.110633   3.182942   0.342633  -0.270856  -1.774609   1.812749   2.080535  10.372013   4.261541   1.854685  21.781011  50.455234   0.002512  58.243316  -0.005722   0.735064   2.123430  -6.567320   2.043618  -2.105300  -3.595668   3.166464  -8.609248 -51.107335  -0.041315 -81.011571  -0.036298  -3.246532  -3.731520  12.156595 -18.079647  -7.114885  -8.656230  64.796436   0.003986  -0.005947  -4.461178  -6.152612   6.017093  -2.445893   0.001111  -0.004207  -0.418425  -4.121130  -1.477551  23.333198   0.000486   0.001770 -13.590087   4.263094   6.820098   0.340919  -0.000015  -0.000001
 -2.596675   0.906634   5.366838 -10.034178  -7.352640  -2.352288  13.047767   1.111080  -2.436274   3.204139   3.073312   0.349686  -0.340158  -1.773454   1.807271   2.060127  10.246592   4.363660   1.942166  21.389945  50.303102   0.003196  57.924381  -0.006153   0.721817   2.057033  -6.516871   1.964055  -2.288382  -3.772469   3.110539  -8.805175 -51.155670  -0.040574 -80.489552  -0.035712  -3.258632  -3.649588  12.023777 -18.718692  -7.076656  -9.027238  65.079884   0.003636  -0.005009  -4.441365  -6.422368   5.968180  -2.370224   0.001015  -0.003555  -0.260940  -4.161793  -1.456374  23.505331   0.000438   0.001727 -13.763630   4.054431   6.783238   0.337436  -0.000013  -0.000001
 -2.597253   0.906636   5.368240 -10.078254  -7.054189  -2.394453  13.181634   0.978724  -2.345658   3.261330   2.926121   0.394239  -0.420657  -1.758015   1.811072   2.030747  10.056150   4.541416   1.964527  20.825936  50.072008   0.003504  57.799008  -0.006075   0.672054   1.931389  -6.301481   1.873915  -2.484394  -3.938319   3.145734  -9.148258 -51.207604  -0.050814 -79.616270  -0.045821  -3.201376  -3.729193  11.905285 -19.181372  -6.969725  -9.244056  64.559434   0.001477  -0.004208  -4.429265  -6.595794   5.834802  -2.330445   0.000917  -0.002838  -0.163275  -4.190825  -1.330326  23.594825   0.000374   0.001601 -13.867904   3.776165   6.661869   0.319014  -0.000023  -0.000000
 -2.597839   0.906673   5.369560 -10.082058  -6.772906  -2.418125  13.299723   0.841205  -2.265756   3.295929   2.766864   0.433856  -0.500871  -1.742094   1.820409   1.985062   9.860330   4.680434   1.971463  20.287651  49.836575   0.003678  57.691928  -0.005867   0.624748   1.865762  -6.185425   1.801680  -2.677740  -4.092602   3.191608  -9.469106 -51.255629  -0.057199 -78.776060  -0.052291  -3.174011  -3.660763  11.729426 -19.633519  -6.831033  -9.458574  63.871383  -0.000799  -0.003745  -4.426671  -6.757070   5.708789  -2.295931   0.000820  -0.002253  -0.096181  -4.216551  -1.217669  23.646118   0.000311   0.001401 -13.947059   3.509917   6.546903   0.302199  -0.000029  -0.000000
 -2.598470   0.906710   5.370831 -10.075272  -6.511552  -2.431498  13.415818   0.702913  -2.194817   3.325406   2.607674   0.464257  -0.575670  -1.727599   1.830873   1.931587   9.671196   4.789784   1.970297  19.779413  49.602061   0.003744  57.594253  -0.005582   0.580863   1.821367  -6.129199   1.736634  -2.861007  -4.235267   3.237052  -9.769020 -51.299897  -0.059789 -77.988334  -0.055099  -3.156409  -3.550966  11.537458 -20.077707  -6.684737  -9.672234  63.167394  -0.002590  -0.003405  -4.427226  -6.907923   5.590778  -2.266162   0.000725  -0.001787  -0.036489  -4.239630  -1.113766  23.683631   0.000255   0.001204 -14.019355   3.260228   6.437987   0.287336  -0.000031   0.000000
 -2.599171   0.906744   5.372079 -10.066492  -6.267999  -2.440647  13.529859   0.567193  -2.131180   3.354536   2.452539   0.487432  -0.644265  -1.714354   1.841218   1.876201   9.490456   4.879441   1.965009  19.300944  49.373950   0.003722  57.503531  -0.005250   0.539323   1.783371  -6.106257   1.676150  -3.033409  -4.367934   3.279841 -10.049476 -51.340828  -0.059636 -77.252580  -0.055226  -3.141071  -3.435406  11.344507 -20.508162  -6.540025  -9.878111  62.489734  -0.003836  -0.003130  -4.429042  -7.048940   5.480601  -2.240381   0.000634  -0.001415   0.023737  -4.261606  -1.012131  23.715048   0.000207   0.001028 -14.091490   3.026633   6.334476   0.274652  -0.000031   0.000000
 -2.599951   0.906775   5.373319 -10.057482  -6.040218  -2.447667  13.639954   0.435828  -2.074330   3.383698   2.303091   0.504967  -0.707284  -1.702176   1.850956   1.822283   9.318480   4.955841   1.957843  18.851460  49.155868   0.003628  57.418757  -0.004891   0.499583   1.746947  -6.101382   1.619543  -3.195031  -4.491753   3.319694 -10.311660 -51.378879  -0.057657 -76.565992  -0.053548  -3.126040  -3.323568  11.155526 -20.921108  -6.400411 -10.072573  61.850249  -0.004620  -0.002899  -4.431449  -7.180697   5.377855  -2.217993   0.000551  -0.001120   0.086608  -4.283508  -0.910077  23.742321   0.000166   0.000876 -14.165562   2.808102   6.236112   0.264252  -0.000029   0.000000
 -2.600814   0.906805   5.374556 -10.048011  -5.826628  -2.452843  13.744641   0.309797  -2.023940   3.412263   2.160121   0.517860  -0.765501  -1.690942   1.859849   1.771379   9.155390   5.022877   1.949912  18.429904  48.949607   0.003480  57.339422  -0.004519   0.461418   1.710823  -6.105914   1.566496  -3.346283  -4.607533   3.356700 -10.556705 -51.414401  -0.054538 -75.925473  -0.050730  -3.110858  -3.217851  10.972270 -21.314485  -6.267257 -10.254369  61.251370  -0.005043  -0.002701  -4.434157  -7.303765   5.282080  -2.198489   0.000475  -0.000886   0.152079  -4.305824  -0.806982  23.765850   0.000132   0.000745 -14.242011   2.603531   6.142659   0.256125  -0.000026   0.000000
 -2.601791   0.907116   5.375880  -9.978525  -5.557880  -2.520374  13.767047   0.188969  -1.914583   3.427321   1.973338   0.582932  -0.792020  -1.710075   1.883089   1.743338   8.941557   5.150111   1.811654  17.838946  48.690684   0.001939  57.415123  -0.002699   0.390181   1.602578  -5.937108   1.538022  -3.505352  -4.713461   3.518036 -11.004430 -51.451750  -0.063993 -74.907699  -0.060516  -3.014047  -3.312435  10.865266 -21.424581  -6.061867 -10.269605  59.870724  -0.008776  -0.005253  -4.360662  -7.258824   5.219670  -2.216048   0.000341  -0.000780   0.210144  -4.319589  -0.597654  23.693260   0.000111   0.000414 -14.251792   2.328632   5.951667   0.230423  -0.000045   0.000000
